<?xml version="1.0" encoding="us-ascii" standalone="no"?><svg xmlns="http://www.w3.org/2000/svg" xmlns:xlink="http://www.w3.org/1999/xlink" contentStyleType="text/css" height="660px" preserveAspectRatio="none" style="width:1063px;height:660px;background:#F9F9F9;" version="1.1" viewBox="0 0 1063 660" width="1063px" zoomAndPan="magnify"><defs/><g><rect fill="#F9F9F9" height="660" style="stroke:none;stroke-width:1.0;" width="1063" x="0" y="0"/><text fill="#000000" font-family="sans-serif" font-size="14" font-weight="bold" lengthAdjust="spacing" textLength="289" x="388.25" y="29.5332">Sequence Diagram: &#1055;&#1086;&#1089;&#1090;&#1088;&#1086;&#1077;&#1085;&#1080;&#1077; &#1075;&#1088;&#1072;&#1092;&#1080;&#1082;&#1072;</text><rect fill="#FFC0CB" height="435.0547" style="stroke:#393939;stroke-width:1.0;" width="10" x="69.5" y="132.2188"/><rect fill="#D8BFD8" height="145.2422" style="stroke:#393939;stroke-width:1.0;" width="10" x="302.5" y="154.5703"/><rect fill="#D8BFD8" height="73.7031" style="stroke:#393939;stroke-width:1.0;" width="10" x="302.5" y="477.5703"/><rect fill="#DEB887" height="30.3516" style="stroke:#393939;stroke-width:1.0;" width="10" x="657.5" y="299.8125"/><rect fill="#DEB887" height="117.0547" style="stroke:#393939;stroke-width:1.0;" width="10" x="657.5" y="360.5156"/><rect fill="#87CEFA" height="30.3516" style="stroke:#393939;stroke-width:1.0;" width="10" x="991.5" y="330.1641"/><rect fill="none" height="346.3516" rx="5" ry="5" style="stroke:#393939;stroke-width:1.0;" width="1046.5" x="10" y="212.9219"/><line style="stroke:#393939;stroke-width:0.5;stroke-dasharray:5.0,5.0;" x1="74" x2="74" y1="122.2188" y2="576.2734"/><line style="stroke:#393939;stroke-width:0.5;stroke-dasharray:5.0,5.0;" x1="307" x2="307" y1="122.2188" y2="576.2734"/><line style="stroke:#393939;stroke-width:0.5;stroke-dasharray:5.0,5.0;" x1="662.5" x2="662.5" y1="122.2188" y2="576.2734"/><line style="stroke:#393939;stroke-width:0.5;stroke-dasharray:5.0,5.0;" x1="996.5" x2="996.5" y1="122.2188" y2="576.2734"/><text fill="#191919" font-family="sans-serif" font-size="14" font-weight="bold" lengthAdjust="spacing" text-decoration="underline" textLength="103" x="20" y="119.1426">&#1055;&#1086;&#1083;&#1100;&#1079;&#1086;&#1074;&#1072;&#1090;&#1077;&#1083;&#1100;</text><ellipse cx="74.5" cy="60.1094" fill="#FFC0CB" rx="16" ry="16" style="stroke:#191919;stroke-width:0.5;"/><path d="M74.5,80.1094 C78.5,80.1094 81.5,80.1094 85.5,76.1094 C93.5,76.1094 101.5,84.1094 101.5,92.1094 L101.5,96.1094 C101.5,100.1094 97.5,104.1094 93.5,104.1094 L55.5,104.1094 C51.5,104.1094 47.5,100.1094 47.5,96.1094 L47.5,92.1094 C47.5,84.1094 55.5,76.1094 63.5,76.1094 C67.5,80.1094 70.5,80.1094 74.5,80.1094 " fill="#FFC0CB" style="stroke:#191919;stroke-width:0.5;"/><text fill="#191919" font-family="sans-serif" font-size="14" font-weight="bold" lengthAdjust="spacing" text-decoration="underline" textLength="103" x="20" y="589.8066">&#1055;&#1086;&#1083;&#1100;&#1079;&#1086;&#1074;&#1072;&#1090;&#1077;&#1083;&#1100;</text><ellipse cx="74.5" cy="609.3828" fill="#FFC0CB" rx="16" ry="16" style="stroke:#191919;stroke-width:0.5;"/><path d="M74.5,629.3828 C78.5,629.3828 81.5,629.3828 85.5,625.3828 C93.5,625.3828 101.5,633.3828 101.5,641.3828 L101.5,645.3828 C101.5,649.3828 97.5,653.3828 93.5,653.3828 L55.5,653.3828 C51.5,653.3828 47.5,649.3828 47.5,645.3828 L47.5,641.3828 C47.5,633.3828 55.5,625.3828 63.5,625.3828 C67.5,629.3828 70.5,629.3828 74.5,629.3828 " fill="#FFC0CB" style="stroke:#191919;stroke-width:0.5;"/><rect fill="#D8BFD8" height="31.6094" rx="5" ry="5" style="stroke:#191919;stroke-width:1.5;" width="103" x="256" y="89.6094"/><text fill="#000000" font-family="sans-serif" font-size="14" font-weight="bold" lengthAdjust="spacing" text-decoration="underline" textLength="89" x="263" y="111.1426">MainWindow</text><rect fill="#D8BFD8" height="31.6094" rx="5" ry="5" style="stroke:#191919;stroke-width:1.5;" width="103" x="256" y="575.2734"/><text fill="#000000" font-family="sans-serif" font-size="14" font-weight="bold" lengthAdjust="spacing" text-decoration="underline" textLength="89" x="263" y="596.8066">MainWindow</text><rect fill="#DEB887" height="31.6094" rx="5" ry="5" style="stroke:#191919;stroke-width:1.5;" width="96" x="614.5" y="89.6094"/><text fill="#000000" font-family="sans-serif" font-size="14" font-weight="bold" lengthAdjust="spacing" text-decoration="underline" textLength="82" x="621.5" y="111.1426">PlotHandler</text><rect fill="#DEB887" height="31.6094" rx="5" ry="5" style="stroke:#191919;stroke-width:1.5;" width="96" x="614.5" y="575.2734"/><text fill="#000000" font-family="sans-serif" font-size="14" font-weight="bold" lengthAdjust="spacing" text-decoration="underline" textLength="82" x="621.5" y="596.8066">PlotHandler</text><rect fill="#87CEFA" height="31.6094" rx="5" ry="5" style="stroke:#191919;stroke-width:1.5;" width="100" x="946.5" y="89.6094"/><text fill="#000000" font-family="sans-serif" font-size="14" font-weight="bold" lengthAdjust="spacing" text-decoration="underline" textLength="86" x="953.5" y="111.1426">DataHandler</text><rect fill="#87CEFA" height="31.6094" rx="5" ry="5" style="stroke:#191919;stroke-width:1.5;" width="100" x="946.5" y="575.2734"/><text fill="#000000" font-family="sans-serif" font-size="14" font-weight="bold" lengthAdjust="spacing" text-decoration="underline" textLength="86" x="953.5" y="596.8066">DataHandler</text><rect fill="#FFC0CB" height="435.0547" style="stroke:#393939;stroke-width:1.0;" width="10" x="69.5" y="132.2188"/><rect fill="#D8BFD8" height="145.2422" style="stroke:#393939;stroke-width:1.0;" width="10" x="302.5" y="154.5703"/><rect fill="#D8BFD8" height="73.7031" style="stroke:#393939;stroke-width:1.0;" width="10" x="302.5" y="477.5703"/><rect fill="#DEB887" height="30.3516" style="stroke:#393939;stroke-width:1.0;" width="10" x="657.5" y="299.8125"/><rect fill="#DEB887" height="117.0547" style="stroke:#393939;stroke-width:1.0;" width="10" x="657.5" y="360.5156"/><rect fill="#87CEFA" height="30.3516" style="stroke:#393939;stroke-width:1.0;" width="10" x="991.5" y="330.1641"/><polygon fill="#191919" points="290.5,150.5703,300.5,154.5703,290.5,158.5703,294.5,154.5703" style="stroke:#191919;stroke-width:1.0;"/><line style="stroke:#191919;stroke-width:1.0;" x1="79.5" x2="296.5" y1="154.5703" y2="154.5703"/><text fill="#000000" font-family="sans-serif" font-size="13" lengthAdjust="spacing" textLength="197" x="86.5" y="149.7139">&#1042;&#1099;&#1073;&#1080;&#1088;&#1072;&#1077;&#1090; &#1090;&#1080;&#1087; &#1075;&#1088;&#1072;&#1092;&#1080;&#1082;&#1072; &#1080; &#1089;&#1090;&#1086;&#1083;&#1073;&#1094;&#1099;</text><line style="stroke:#191919;stroke-width:1.0;" x1="312.5" x2="354.5" y1="184.9219" y2="184.9219"/><line style="stroke:#191919;stroke-width:1.0;" x1="354.5" x2="354.5" y1="184.9219" y2="197.9219"/><line style="stroke:#191919;stroke-width:1.0;" x1="313.5" x2="354.5" y1="197.9219" y2="197.9219"/><polygon fill="#191919" points="323.5,193.9219,313.5,197.9219,323.5,201.9219,319.5,197.9219" style="stroke:#191919;stroke-width:1.0;"/><text fill="#000000" font-family="sans-serif" font-size="13" lengthAdjust="spacing" textLength="189" x="319.5" y="180.0654">&#1042;&#1072;&#1083;&#1080;&#1076;&#1080;&#1088;&#1091;&#1077;&#1090; &#1074;&#1074;&#1086;&#1076; &#1087;&#1086;&#1083;&#1100;&#1079;&#1086;&#1074;&#1072;&#1090;&#1077;&#1083;&#1103;</text><path d="M15,212.9219 L71,212.9219 L71,221.2734 L61,231.2734 L10,231.2734 L10,217.9219 A5,5 0 0 1 15,212.9219 " fill="#D87093" style="stroke:#393939;stroke-width:1.5;"/><rect fill="none" height="346.3516" rx="5" ry="5" style="stroke:#393939;stroke-width:1.0;" width="1046.5" x="10" y="212.9219"/><text fill="#191919" font-family="sans-serif" font-size="13" font-weight="bold" lengthAdjust="spacing" textLength="16" x="25" y="227.417">alt</text><text fill="#393939" font-family="sans-serif" font-size="11" font-weight="bold" lengthAdjust="spacing" textLength="136" x="86" y="226.3408">[&#1053;&#1077;&#1082;&#1086;&#1088;&#1088;&#1077;&#1082;&#1090;&#1085;&#1099;&#1077; &#1076;&#1072;&#1085;&#1085;&#1099;&#1077;]</text><polygon fill="#191919" points="90.5,249.625,80.5,253.625,90.5,257.625,86.5,253.625" style="stroke:#191919;stroke-width:1.0;"/><line style="stroke:#191919;stroke-width:1.0;stroke-dasharray:2.0,2.0;" x1="84.5" x2="301.5" y1="253.625" y2="253.625"/><text fill="#000000" font-family="sans-serif" font-size="13" lengthAdjust="spacing" textLength="193" x="96.5" y="248.7686">&#1055;&#1086;&#1082;&#1072;&#1079;&#1072;&#1090;&#1100; &#1089;&#1086;&#1086;&#1073;&#1097;&#1077;&#1085;&#1080;&#1077; &#1086;&#1073; &#1086;&#1096;&#1080;&#1073;&#1082;&#1077;</text><line style="stroke:#393939;stroke-width:1.0;stroke-dasharray:2.0,2.0;" x1="10" x2="1056.5" y1="262.625" y2="262.625"/><text fill="#393939" font-family="sans-serif" font-size="11" font-weight="bold" lengthAdjust="spacing" textLength="116" x="15" y="274.0439">[&#1044;&#1072;&#1085;&#1085;&#1099;&#1077; &#1082;&#1086;&#1088;&#1088;&#1077;&#1082;&#1090;&#1085;&#1099;]</text><polygon fill="#191919" points="645.5,295.8125,655.5,299.8125,645.5,303.8125,649.5,299.8125" style="stroke:#191919;stroke-width:1.0;"/><line style="stroke:#191919;stroke-width:1.0;" x1="307.5" x2="651.5" y1="299.8125" y2="299.8125"/><text fill="#000000" font-family="sans-serif" font-size="13" lengthAdjust="spacing" textLength="259" x="314.5" y="294.9561">build_plot(dataframe, plot_type, x_col, y_col)</text><polygon fill="#191919" points="979.5,326.1641,989.5,330.1641,979.5,334.1641,983.5,330.1641" style="stroke:#191919;stroke-width:1.0;"/><line style="stroke:#191919;stroke-width:1.0;" x1="662.5" x2="985.5" y1="330.1641" y2="330.1641"/><text fill="#000000" font-family="sans-serif" font-size="13" lengthAdjust="spacing" textLength="305" x="669.5" y="325.3076">get_filtered_data() # &#1055;&#1086;&#1083;&#1091;&#1095;&#1077;&#1085;&#1080;&#1077; &#1072;&#1082;&#1090;&#1091;&#1072;&#1083;&#1100;&#1085;&#1099;&#1093; &#1076;&#1072;&#1085;&#1085;&#1099;&#1093;</text><polygon fill="#191919" points="678.5,356.5156,668.5,360.5156,678.5,364.5156,674.5,360.5156" style="stroke:#191919;stroke-width:1.0;"/><line style="stroke:#191919;stroke-width:1.0;stroke-dasharray:2.0,2.0;" x1="672.5" x2="995.5" y1="360.5156" y2="360.5156"/><text fill="#000000" font-family="sans-serif" font-size="13" lengthAdjust="spacing" textLength="64" x="684.5" y="355.6592">DataFrame</text><line style="stroke:#191919;stroke-width:1.0;" x1="667.5" x2="709.5" y1="390.8672" y2="390.8672"/><line style="stroke:#191919;stroke-width:1.0;" x1="709.5" x2="709.5" y1="390.8672" y2="403.8672"/><line style="stroke:#191919;stroke-width:1.0;" x1="668.5" x2="709.5" y1="403.8672" y2="403.8672"/><polygon fill="#191919" points="678.5,399.8672,668.5,403.8672,678.5,407.8672,674.5,403.8672" style="stroke:#191919;stroke-width:1.0;"/><text fill="#000000" font-family="sans-serif" font-size="13" lengthAdjust="spacing" textLength="155" x="674.5" y="386.0107">&#1057;&#1086;&#1079;&#1076;&#1072;&#1077;&#1090; &#1092;&#1080;&#1075;&#1091;&#1088;&#1091; matplotlib</text><line style="stroke:#191919;stroke-width:1.0;" x1="667.5" x2="709.5" y1="434.2188" y2="434.2188"/><line style="stroke:#191919;stroke-width:1.0;" x1="709.5" x2="709.5" y1="434.2188" y2="447.2188"/><line style="stroke:#191919;stroke-width:1.0;" x1="668.5" x2="709.5" y1="447.2188" y2="447.2188"/><polygon fill="#191919" points="678.5,443.2188,668.5,447.2188,678.5,451.2188,674.5,447.2188" style="stroke:#191919;stroke-width:1.0;"/><text fill="#000000" font-family="sans-serif" font-size="13" lengthAdjust="spacing" textLength="217" x="674.5" y="429.3623">render_plot() # &#1054;&#1090;&#1088;&#1080;&#1089;&#1086;&#1074;&#1099;&#1074;&#1072;&#1077;&#1090; &#1075;&#1088;&#1072;&#1092;&#1080;&#1082;</text><polygon fill="#191919" points="323.5,473.5703,313.5,477.5703,323.5,481.5703,319.5,477.5703" style="stroke:#191919;stroke-width:1.0;"/><line style="stroke:#191919;stroke-width:1.0;stroke-dasharray:2.0,2.0;" x1="317.5" x2="661.5" y1="477.5703" y2="477.5703"/><text fill="#000000" font-family="sans-serif" font-size="13" lengthAdjust="spacing" textLength="75" x="329.5" y="472.7139">Figure object</text><line style="stroke:#191919;stroke-width:1.0;" x1="312.5" x2="354.5" y1="507.9219" y2="507.9219"/><line style="stroke:#191919;stroke-width:1.0;" x1="354.5" x2="354.5" y1="507.9219" y2="520.9219"/><line style="stroke:#191919;stroke-width:1.0;" x1="313.5" x2="354.5" y1="520.9219" y2="520.9219"/><polygon fill="#191919" points="323.5,516.9219,313.5,520.9219,323.5,524.9219,319.5,520.9219" style="stroke:#191919;stroke-width:1.0;"/><text fill="#000000" font-family="sans-serif" font-size="13" lengthAdjust="spacing" textLength="331" x="319.5" y="503.0654">open_plot_dialog(figure) # &#1054;&#1090;&#1082;&#1088;&#1099;&#1074;&#1072;&#1077;&#1090; &#1076;&#1080;&#1072;&#1083;&#1086;&#1075; &#1089; &#1075;&#1088;&#1072;&#1092;&#1080;&#1082;&#1086;&#1084;</text><polygon fill="#191919" points="90.5,547.2734,80.5,551.2734,90.5,555.2734,86.5,551.2734" style="stroke:#191919;stroke-width:1.0;"/><line style="stroke:#191919;stroke-width:1.0;stroke-dasharray:2.0,2.0;" x1="84.5" x2="306.5" y1="551.2734" y2="551.2734"/><text fill="#000000" font-family="sans-serif" font-size="13" lengthAdjust="spacing" textLength="199" x="96.5" y="546.417">&#1054;&#1090;&#1086;&#1073;&#1088;&#1072;&#1078;&#1072;&#1077;&#1090; &#1075;&#1088;&#1072;&#1092;&#1080;&#1082; &#1074; &#1085;&#1086;&#1074;&#1086;&#1084; &#1086;&#1082;&#1085;&#1077;</text><!--SRC=[TLFDJXin6BplKtmb5mWWjTSUE524E1GfAcqvHcRN13VEElKwehbHAFqHI9MgNalLDqW2AH6Gy0hs6tNitP8bfNlOtM_tyynull4ZiyTRd5fCPv4HHdBQucyxF8qvhGdMqAprbEnFEt7ltQ4xi1Cxj6CxiaEovoXxxWEAAzkBegmfqZP3FsK5G8rf8sBHPgcXJffmBKNAItrQuMkiTCerFNbS-i5Ye_IMwK8Cs-UPQfLNbL3NLMgUAQaqLLObYvjH55RINBNg9TjhTselyHn0vo64ewvMvuXbz2e3PwKcqcRKBgd4maqcqcsH9cg_QDtSfihBFP71cjdUcbHcWwM9vBfehcr0IaVBxhPIoMpx6ZFiVliQsf-BnfxPQdPNPOT7KH2sk5Xe2zNoYjVWlnKo21Fvvavituxy2EpG7HBsDxAtCqCXEo8_Ds-5xRkFxYG2KexdCR3s6fqN7iST1HnuDK3x1TdR1mty6Z5fAZKc-MkX93SlU4Bs1tvT8I878CSRMiUGXuXSW66S5n7XykoWzzlAK-LLWW7exXHIyM42eL-c8KE9c_kCge_cOSHbnib-dmBJlzHtN2j-8ClBthkxgM3dEnqXateRqvjFC9DTn8elaQ_hfjl6wxjwhEGITVrZ8Q1vd1K_hnojF3G0DhYfxmffkEP9tKFEBr25YWmUkK_J_VIyHdZT2zv2gpiksUIE0rcW-Ozs7w9rBxWa2tVO-Gjibm4h1C9du1pac2nEj_6xas9dTfNc_c3cNWJDP-6OZy8i1l1tKE2LatK7aaSf5paDvxfeT3GdjVE6nwOqYv0wrUPfeAidWadLcDyDtN-vOSz1cHNP32cTs7Fautw-9_PcDbLuyLQSXSptm-du_S0647E2uvEGzHiAEHpxSAL9z0S0]--></g></svg>