<?xml version="1.0" standalone="no"?>
<!DOCTYPE svg PUBLIC "-//W3C//DTD SVG 20010904//EN"
 "http://www.w3.org/TR/2001/REC-SVG-20010904/DTD/svg10.dtd">
<svg version="1.0" xmlns="http://www.w3.org/2000/svg"
 width="256.000000pt" height="256.000000pt" viewBox="0 0 256.000000 256.000000"
 preserveAspectRatio="xMidYMid meet">
<metadata>
Created by potrace 1.16, written by Peter Selinger 2001-2019
</metadata>
<g transform="translate(0.000000,256.000000) scale(0.100000,-0.100000)"
fill="#000000" stroke="none">
<path d="M818 2171 c-30 -9 -67 -56 -73 -92 -5 -27 -13 -40 -28 -45 -34 -10
-67 -45 -67 -70 0 -14 13 -33 35 -50 44 -33 47 -69 8 -79 -38 -9 -73 -44 -73
-71 0 -26 23 -52 55 -64 36 -14 22 -53 -27 -74 -69 -31 -73 -87 -8 -121 43
-22 38 -43 -14 -60 -16 -6 -38 -22 -49 -37 -19 -26 -19 -28 -3 -53 9 -14 28
-31 42 -37 35 -16 31 -46 -11 -64 -48 -20 -71 -57 -57 -90 7 -13 23 -29 37
-36 37 -17 35 -63 -5 -83 -63 -33 -74 -89 -24 -121 36 -24 32 -60 -10 -78 -62
-26 -74 -82 -26 -118 41 -30 38 -53 -9 -77 -63 -32 -69 -76 -16 -117 29 -22
35 -33 35 -65 0 -48 14 -85 37 -97 10 -6 137 -22 283 -37 146 -14 326 -33 400
-41 297 -32 377 -35 414 -20 18 8 37 19 40 25 5 7 44 11 102 11 78 0 97 3 113
19 20 20 30 77 56 321 48 446 88 791 105 915 11 77 25 193 31 257 11 104 10
120 -5 142 -14 23 -23 25 -93 28 l-78 3 3 40 c5 63 -6 103 -36 123 -24 16 -69
17 -549 17 -288 0 -528 -2 -535 -4z m951 -105 c14 -9 14 -76 1 -203 -30 -279
-92 -848 -109 -988 -11 -88 -25 -209 -31 -270 -15 -147 -30 -222 -46 -236 -10
-8 -76 -5 -256 10 -134 12 -326 28 -428 36 -102 8 -199 17 -217 20 -41 7 -64
30 -59 58 3 12 8 48 11 79 7 61 17 72 35 38 8 -14 8 -26 -1 -41 -9 -17 -8 -20
3 -17 23 8 22 58 -2 83 -20 21 -21 29 -13 101 8 79 23 102 43 65 8 -15 8 -27
-1 -42 -9 -17 -8 -20 3 -17 7 3 14 18 16 35 2 23 -3 36 -23 51 l-26 20 11 88
c6 49 13 91 16 93 2 3 14 -5 26 -17 19 -18 20 -25 10 -47 -14 -30 2 -34 18 -5
13 24 2 49 -34 77 -23 18 -23 19 -12 100 6 45 14 85 18 89 14 13 40 -19 35
-43 -3 -15 0 -22 7 -20 23 8 17 38 -14 69 l-32 31 10 74 c6 41 13 77 16 80 3
3 13 0 22 -8 11 -9 14 -22 10 -43 -5 -29 -5 -30 9 -12 21 27 19 36 -14 71
l-30 30 12 78 c6 42 14 77 18 77 22 0 40 -34 34 -64 -6 -29 -5 -30 10 -12 22
29 19 44 -16 77 l-30 28 7 81 c7 85 15 100 40 79 11 -9 14 -23 10 -49 -5 -32
-4 -34 9 -16 23 30 18 53 -15 78 -28 21 -30 25 -24 72 8 70 23 126 33 126 20
0 33 -31 27 -63 -5 -30 -5 -31 9 -13 22 29 18 52 -12 80 -22 21 -24 27 -14 40
11 13 50 16 245 18 353 4 673 1 685 -6z m236 -350 c18 -13 18 -19 -9 -262 -16
-137 -30 -250 -31 -252 -1 -1 -15 4 -31 13 -16 8 -37 12 -46 9 -22 -6 -21 -15
-4 110 8 55 22 167 32 249 l17 147 27 0 c14 0 35 -6 45 -14z m-72 -650 c10
-14 14 -37 12 -57 -13 -95 -46 -366 -56 -457 -12 -109 -23 -127 -72 -120 -28
4 -35 41 -25 123 4 33 19 163 33 290 15 126 29 233 31 237 11 18 62 8 77 -16z"/>
<path d="M1164 1515 c-27 -14 -64 -25 -82 -25 -62 0 -112 -40 -112 -89 0 -13
-12 -26 -36 -37 -42 -20 -70 -70 -60 -108 8 -32 60 -66 100 -66 19 0 41 -10
58 -27 24 -23 39 -28 96 -31 37 -2 74 -10 82 -17 43 -38 137 -23 186 30 15 16
34 25 54 25 38 0 104 33 124 62 24 34 20 81 -8 107 -13 13 -48 28 -77 34 -48
11 -54 15 -62 47 -28 110 -148 153 -263 95z m171 -5 c42 -20 75 -63 75 -98 0
-30 27 -52 63 -52 39 0 93 -31 102 -59 16 -52 -64 -120 -142 -121 -22 0 -36
-6 -43 -20 -24 -45 -131 -68 -164 -35 -8 9 -33 15 -58 15 -56 0 -106 15 -132
39 -12 10 -40 22 -63 26 -47 7 -93 44 -93 73 0 27 34 67 70 82 19 8 30 20 30
32 0 50 51 88 118 88 21 0 43 5 49 11 16 16 84 38 117 39 16 0 48 -9 71 -20z"/>
</g>
</svg>
