<?xml version="1.0" standalone="no"?>
<!DOCTYPE svg PUBLIC "-//W3C//DTD SVG 20010904//EN"
 "http://www.w3.org/TR/2001/REC-SVG-20010904/DTD/svg10.dtd">
<svg version="1.0" xmlns="http://www.w3.org/2000/svg"
 width="256.000000pt" height="256.000000pt" viewBox="0 0 256.000000 256.000000"
 preserveAspectRatio="xMidYMid meet">

<g transform="translate(0.000000,256.000000) scale(0.100000,-0.100000)"
fill="#000000" stroke="none">
<path d="M818 2171 c-30 -8 -67 -55 -73 -92 -5 -27 -13 -40 -28 -45 -34 -10
-67 -45 -67 -70 0 -14 13 -33 35 -50 44 -33 47 -69 8 -79 -37 -9 -73 -43 -73
-70 0 -22 32 -58 61 -68 30 -10 11 -52 -32 -71 -69 -30 -72 -88 -9 -121 43
-22 38 -43 -14 -60 -16 -6 -38 -22 -49 -37 -19 -26 -19 -28 -3 -53 9 -14 28
-31 42 -37 35 -16 31 -46 -11 -64 -69 -28 -80 -98 -20 -126 37 -17 35 -62 -5
-83 -63 -33 -74 -89 -24 -121 36 -24 32 -60 -10 -78 -63 -26 -73 -85 -21 -121
39 -26 34 -50 -16 -75 -62 -32 -66 -86 -9 -118 26 -15 30 -23 30 -59 0 -56 15
-91 42 -103 13 -5 162 -24 333 -41 171 -17 351 -35 400 -40 312 -32 364 -32
395 7 9 10 36 14 104 14 50 0 96 4 101 8 37 27 37 26 121 787 19 176 46 401
59 500 51 386 52 382 -72 387 l-77 3 -1 68 c0 90 -18 106 -114 109 -137 3
-991 3 -1003 -1z m950 -100 c22 -2 19 -60 -34 -536 -14 -126 -34 -311 -44
-410 -11 -99 -24 -209 -30 -245 -5 -36 -14 -117 -20 -180 -16 -179 -39 -313
-54 -329 -13 -12 -55 -10 -313 13 -164 14 -361 31 -438 37 -195 15 -199 16
-203 65 -5 54 7 144 19 144 16 0 27 -43 17 -64 -8 -14 -7 -17 4 -14 24 8 21
62 -6 87 -13 13 -22 29 -20 35 3 7 8 41 12 76 7 66 23 85 42 51 8 -15 8 -27
-1 -42 -9 -17 -8 -20 3 -17 24 8 21 58 -5 87 -25 25 -25 29 -17 101 5 41 9 80
10 87 0 17 28 5 41 -18 6 -13 6 -25 -1 -39 -7 -13 -7 -20 -1 -20 6 0 15 9 21
20 12 23 3 45 -32 76 -23 20 -24 22 -14 107 5 53 14 87 21 87 19 0 35 -23 35
-50 1 -22 2 -23 11 -8 12 21 -1 50 -32 72 -20 14 -21 18 -11 91 6 42 13 79 16
82 3 3 13 0 22 -8 11 -9 14 -22 10 -43 -5 -29 -5 -30 9 -12 21 27 19 33 -15
67 l-29 30 11 79 c7 44 15 80 19 80 22 0 40 -34 34 -64 -6 -29 -5 -30 10 -12
22 29 19 44 -16 77 l-30 28 7 81 c7 85 15 100 40 79 11 -9 14 -23 10 -49 -5
-32 -4 -34 9 -16 23 30 18 52 -15 78 l-30 24 11 75 c14 93 21 108 44 89 12
-10 15 -23 10 -49 -6 -31 -5 -33 9 -22 24 20 19 57 -11 85 -22 21 -24 27 -14
40 11 13 50 16 245 18 190 3 636 1 684 -1z m-1036 -105 c-4 -48 -10 -53 -43
-36 -29 16 -24 57 8 74 16 8 30 13 33 11 3 -2 4 -24 2 -49z m1278 -142 c18
-45 13 -54 -22 -47 -42 8 -41 5 -22 41 19 39 31 40 44 6z m-1301 -36 c-1 -18
-4 -43 -7 -55 -6 -20 -9 -21 -32 -10 -18 9 -25 21 -25 42 0 21 7 33 25 42 36
18 40 17 39 -19z m1304 -33 c33 -13 17 -25 -25 -19 -50 8 -52 9 -43 23 6 11
34 9 68 -4z m-3 -41 c11 -12 9 -59 -15 -262 -15 -136 -29 -249 -31 -251 -2 -2
-10 2 -18 8 -8 7 -27 14 -43 15 -27 3 -28 6 -25 52 1 27 7 72 12 99 5 28 16
119 26 203 l17 152 32 0 c18 0 38 -7 45 -16z m-1330 -139 c0 -55 -21 -69 -53
-36 -17 17 -19 25 -11 39 9 13 49 41 62 42 1 0 2 -20 2 -45z m-27 -197 c-6
-52 -18 -59 -53 -30 -28 23 -20 56 18 76 35 19 42 11 35 -46z m-27 -185 c-7
-55 -12 -61 -33 -47 -37 23 -40 44 -10 70 42 36 51 31 43 -23z m1318 -4 c22
-17 26 -28 26 -70 0 -54 -4 -58 -33 -31 -11 9 -35 17 -56 17 -40 0 -41 1 -41
50 0 28 5 38 23 45 35 14 52 12 81 -11z m-10 -124 c15 -22 14 -38 -8 -217 -14
-106 -30 -239 -36 -295 -13 -110 -22 -126 -67 -121 l-28 3 1 95 c2 85 48 516
59 548 8 22 61 14 79 -13z m-1339 -82 c-4 -27 -9 -50 -11 -52 -7 -7 -44 31
-44 46 0 16 36 53 51 53 8 0 9 -15 4 -47z m-28 -198 c-6 -57 -12 -63 -37 -40
-24 22 -25 42 -3 67 30 34 46 23 40 -27z m-21 -176 c-3 -17 -6 -40 -6 -50 0
-11 -5 -19 -12 -19 -17 0 -48 31 -48 48 0 23 30 52 53 52 17 0 19 -5 13 -31z"/>
<path d="M1186 1525 c-21 -7 -43 -18 -49 -24 -6 -6 -30 -11 -53 -11 -58 0
-108 -35 -112 -78 -2 -20 -10 -36 -20 -39 -63 -23 -98 -85 -73 -132 15 -27 62
-51 99 -51 16 0 35 -7 43 -16 23 -28 67 -44 122 -44 36 0 59 -5 67 -15 32 -39
128 -25 181 26 20 19 40 29 60 29 70 0 139 57 139 115 0 43 -35 74 -101 88
-48 11 -54 15 -62 47 -26 101 -127 146 -241 105z m152 -16 c44 -22 64 -51 77
-111 4 -20 13 -29 33 -33 112 -22 147 -57 117 -115 -19 -36 -82 -69 -132 -70
-22 0 -36 -6 -43 -20 -24 -45 -131 -68 -164 -35 -8 9 -33 15 -58 15 -56 0
-106 15 -132 39 -12 10 -40 22 -63 26 -46 7 -93 44 -93 72 0 29 29 64 66 79
23 10 34 21 34 35 0 51 50 89 118 89 21 0 42 4 48 10 15 15 86 39 118 39 16 1
49 -9 74 -20z"/>
</g>
</svg>
